<svg xmlns="http://www.w3.org/2000/svg">

	<symbol id="aether" viewBox="0 0 32 32">
		<title>aether</title>
		<path d="M16 0c-8.837 0-16 7.163-16 16s7.163 16 16 16c8.837 0 16-7.163 16-16v0c0-8.837-7.163-16-16-16v0zM16 30.080c-6.716 0-12.16-6.304-12.16-14.080s5.444-14.080 12.16-14.080 12.16 6.304 12.16 14.080-5.444 14.080-12.16 14.080z"></path>
	</symbol>

	<symbol id="air" viewBox="0 0 37 32">
		<title>air</title>
		<path d="M36.443 30.277l-17.149-29.702c-0.204-0.344-0.573-0.571-0.995-0.571s-0.791 0.227-0.992 0.565l-0.003 0.005-17.148 29.702c-0.095 0.164-0.151 0.361-0.151 0.571 0 0.635 0.513 1.149 1.147 1.152h34.304c0.63-0.008 1.138-0.52 1.138-1.152 0-0.21-0.056-0.407-0.154-0.576l0.003 0.006zM22.879 14.464h-11.456l5.729-9.916zM3.117 28.856l6.538-11.32h14.993l6.538 11.325z"></path>
	</symbol>

	<symbol id="earth" viewBox="0 0 37 32">
		<title>earth</title>
		<path d="M35.448 0h-34.296c-0.634 0.003-1.147 0.517-1.147 1.152 0 0.21 0.056 0.407 0.154 0.576l-0.003-0.006 17.152 29.704c0.204 0.344 0.573 0.571 0.995 0.571s0.791-0.227 0.992-0.565l0.003-0.005 17.152-29.704c0.095-0.164 0.151-0.361 0.151-0.571 0-0.636-0.516-1.152-1.152-1.152-0 0-0 0-0 0h0zM13.719 17.536h11.456l-5.728 9.921zM26.944 14.464h-14.993l-6.538-11.32h28.069z"></path>
	</symbol>

	<symbol id="fire" viewBox="0 0 37 32">
		<title>fire</title>
		<path d="M36.443 30.277l-17.149-29.702c-0.204-0.344-0.573-0.571-0.995-0.571s-0.791 0.227-0.992 0.565l-0.003 0.005-17.148 29.702c-0.095 0.164-0.151 0.361-0.151 0.571 0 0.635 0.513 1.149 1.147 1.152h34.304c0.63-0.008 1.138-0.52 1.138-1.152 0-0.21-0.056-0.407-0.154-0.576l0.003 0.006zM3.117 28.856l14.035-24.308 14.034 24.308z"></path>
	</symbol>

	<symbol id="unity" viewBox="0 0 29 32">
		<title>unity</title>
		<path d="M28.653 23.802l-13.485-23.353c-0.16-0.27-0.45-0.449-0.782-0.449s-0.622 0.178-0.78 0.444l-0.002 0.004-13.485 23.353c-0.076 0.129-0.12 0.285-0.12 0.451 0 0.499 0.404 0.904 0.903 0.906h26.97c0.499-0.002 0.902-0.407 0.902-0.906 0-0.165-0.044-0.32-0.121-0.453l0.002 0.004zM2.451 22.685l11.035-19.112 11.034 19.112z"></path>
		<path d="M0.421 8.198l13.485 23.353c0.16 0.27 0.45 0.449 0.782 0.449s0.622-0.178 0.78-0.444l0.002-0.004 13.485-23.353c0.075-0.129 0.119-0.284 0.119-0.449 0-0.5-0.405-0.906-0.906-0.906-0 0-0 0-0 0h-26.964c-0.499 0.002-0.902 0.407-0.902 0.906 0 0.165 0.044 0.32 0.121 0.453l-0.002-0.004zM26.622 9.315l-11.035 19.112-11.034-19.112z"></path>
	</symbol>
	
	<symbol id="water" viewBox="0 0 37 32">
		<title>water</title>
		<path d="M0.156 1.723l17.152 29.704c0.204 0.344 0.573 0.571 0.995 0.571s0.791-0.227 0.992-0.565l0.003-0.005 17.152-29.704c0.095-0.164 0.151-0.361 0.151-0.571 0-0.636-0.516-1.152-1.152-1.152-0 0-0 0-0 0h-34.296c-0.634 0.003-1.147 0.517-1.147 1.152 0 0.21 0.056 0.407 0.154 0.576l-0.003-0.006zM33.482 3.144l-14.035 24.308-14.034-24.308z"></path>
	</symbol>

</svg>
