<svg id="Layer_1" data-name="Layer 1" xmlns="http://www.w3.org/2000/svg" viewBox="0 0 288.91 317.98">
  <title>unity</title>
  <path d="M392.76,362.52l-134-232.06a9,9,0,0,0-15.54,0l-134,232.06A9,9,0,0,0,117,376H385a9,9,0,0,0,7.78-13.46ZM132.4,351.42,242.05,161.51,351.69,351.42Z" transform="translate(-108.04 -126)"/>
  <path d="M112.22,207.46l134,232.06a9,9,0,0,0,15.54,0l134-232.06A9,9,0,0,0,387.94,194H120a9,9,0,0,0-7.78,13.46Zm260.36,11.1L262.93,408.47,153.29,218.56Z" transform="translate(-108.04 -126)"/>
</svg>
